<svg class="thumb" width="1000" height="1000" viewBox="0,0,600,600" xmlns="http://www.w3.org/2000/svg" xmlns:inkscape="http://www.inkscape.org/namespaces/inkscape" xmlns:sodipodi="http://sodipodi.sourceforge.net/DTD/sodipodi-0.dtd" xmlns:xlink="http://www.w3.org/1999/xlink" xmlns:ns1="http://www.inkscape.org/namespaces/inkscape" xmlns:sketch="http://www.bohemiancoding.com/sketch/ns">
  <defs>
    <linearGradient x1="0" y1="0.5" x2="1" y2="0.5" id="linearGradientSk7cafcpx4">
      <stop offset="0%" stop-color="#ffffff"></stop>
      <stop offset="0%" stop-color="#ffffff"></stop>
      <stop offset="100%" stop-color="#ffffff"></stop>
    </linearGradient>
  </defs>
  <g elementtype="background">
    <rect x="0" y="0" width="600" height="600" fill="url('#linearGradientSk7cafcpx4')"></rect>
  </g>
  <g transform="matrix(1.3441,0,0,1.3441,87.1815,-0.6548)">
    <g transform="matrix(0.7114,0,0,-0.7114,94.1961,428.1228)">
      <svg width="185.988" height="162.359" viewBox="-4.609,3,185.988,162.359">
        <defs>
          <linearGradient x1="0" y1="0.5" x2="1" y2="0.5" id="linearGradientSk7cafcpxa">
            <stop offset="0%" stop-color="#000000"></stop>
            <stop offset="100%" stop-color="#000000"></stop>
          </linearGradient>
        </defs>
        <g>
          <polygon points="88.385,8 0.391,160.359 176.379,160.359 " stroke="none" fill="url('#linearGradientSk7cafcpxa')" style=""></polygon>
        </g>
      </svg>
    </g>
    <g transform="matrix(2.6189,0,0,2.6189,27.056,33.3654)">
      <svg width="100.10000000000002" height="99.1" viewBox="-0.5,-0.09999999999999964,100.10000000000002,99.1">
        <defs>
          <linearGradient x1="0" y1="0.5" x2="1" y2="0.5" id="linearGradientSk7cafcpxg">
            <stop offset="0%" stop-color="#000000"></stop>
            <stop offset="100%" stop-color="#000000"></stop>
          </linearGradient>
        </defs>
        <g></g>
        <g>
          <path d="M49.5,4.9c-24.8,0-45,20.2-45,45c0,21.9,15.6,40,36.2,44.1c0.4-0.9,0.9-2,1.1-3.1c-0.2-1.1-0.3-2.2-0.6-3.1  c-1-3.2-2.2-6.4-3.4-9.6c-0.6-1.8-2.2-1.8-3.9-1.6c-2.6,0.2-5.4,0.6-8,0.3c-4-0.4-4.9-2.1-4.8-6.1c0.1-1.1-0.2-2.7-0.9-3.5  c-1.4-1.4-0.9-2.4,0-3.6c-0.2,0-0.5-0.1-0.7-0.1c-0.1-1-0.6-2.1-0.4-3c0.4-2.2,0-3-2.2-3.8c-0.7-0.2-1.3-0.4-2-0.8  c-1.8-1-2.2-2.1-1.1-4c1.8-3.2,3.9-6.4,5.7-9.7c0.6-1,0.4-2.6,0.4-3.9c0-1.4-0.7-3-0.4-4.4c0.8-2.8,1.7-5.6,2.9-8.2  c2.8-6.3,8-10.1,14.4-11.8c7.3-2,15-2.8,22.3-0.7c9.7,2.8,20.3,11.3,20.3,23.3c0,4-0.9,8.3-2.6,11.9c-4.9,10.4-5.8,15.2-3.1,26.3  c0,0,0,1,1.7,3.7c0,0,1.8,2.1,4.2,4.9c9.1-8.2,15-20.2,15-33.5C94.4,25,74.3,4.9,49.5,4.9z" stroke="none" fill="url('#linearGradientSk7cafcpxg')" style=""></path>
        </g>
      </svg>
    </g>
    <g transform="matrix(2.6189,0,0,2.6189,156.4074,84.2448)">
      <svg width="31.299999999999997" height="80.7" viewBox="49.3,19.3,31.299999999999997,80.7">
        <defs>
          <linearGradient x1="0" y1="0.5" x2="1" y2="0.5" id="linearGradientSk7cafcpxm">
            <stop offset="0%" stop-color="#000000"></stop>
            <stop offset="11.14%" stop-color="#000000"></stop>
            <stop offset="100%" stop-color="#000000"></stop>
          </linearGradient>
        </defs>
        <g></g>
        <g>
          <path d="M74.8,34.1c0.5-0.3,0.8-0.9,0.8-1.5c0-1-0.8-1.8-1.8-1.8c-1,0-1.8,0.8-1.8,1.8c0,0.6,0.3,1.2,0.8,1.5V37L56.3,53.4v-2.1   l7.6-7.6c0.1,0,0.2,0,0.4,0c1,0,1.8-0.8,1.8-1.8s-0.8-1.8-1.8-1.8c-1,0-1.8,0.8-1.8,1.8c0,0.1,0,0.3,0,0.4l-6.2,6.2v-1.9l12.1-12.1   v-6.9c0.5-0.3,0.8-0.9,0.8-1.5c0-1-0.8-1.8-1.8-1.8c-1,0-1.8,0.8-1.8,1.8c0,0.6,0.3,1.2,0.8,1.5v6L54.3,45.8V94c0,0.6,0.4,1,1,1   s1-0.4,1-1V56.3l18.5-18.5V34.1z" stroke="none" fill="url('#linearGradientSk7cafcpxm')" style=""></path>
        </g>
      </svg>
    </g>
    <g transform="matrix(2.6189,0,0,2.6189,77.2413,105.7203)">
      <svg width="38.8" height="72.1" viewBox="17.8,27.900000000000006,38.8,72.1">
        <defs>
          <linearGradient x1="0" y1="0.5" x2="1" y2="0.5" id="linearGradientSk7cafcpxt">
            <stop offset="0%" stop-color="#000000"></stop>
            <stop offset="86.02%" stop-color="#000000" stop-opacity="0.99"></stop>
            <stop offset="100%" stop-color="#000000"></stop>
          </linearGradient>
        </defs>
        <g></g>
        <g>
          <path d="M27.8,36.5l-1.4-1.4c0-0.1,0-0.2,0-0.4c0-1-0.8-1.8-1.8-1.8c-1,0-1.8,0.8-1.8,1.8c0,1,0.8,1.8,1.8,1.8c0.1,0,0.3,0,0.4,0   l1.9,1.9h15.2l7.4,7.4v2.4l-6.8-6.8h-8.2l-0.3-0.3c0-0.1,0-0.2,0-0.4c0-1-0.8-1.8-1.8-1.8c-1,0-1.8,0.8-1.8,1.8   c0,1,0.8,1.8,1.8,1.8c0.1,0,0.3,0,0.4,0l0.8,0.8H42l7.6,7.6V94c0,0.6,0.4,1,1,1c0.6,0,1-0.4,1-1V45.1L43,36.5H27.8z" stroke="none" fill="url('#linearGradientSk7cafcpxt')" style=""></path>
        </g>
      </svg>
    </g>
    <g transform="matrix(2.6189,0,0,2.6189,166.049,69.6451)">
      <svg width="16.599999999999994" height="27.4" viewBox="52.00000000000001,14.099999999999994,16.599999999999994,27.4">
        <defs>
          <linearGradient x1="0" y1="0.5" x2="1" y2="0.5" id="linearGradientSk7cafcpx10">
            <stop offset="0%" stop-color="#000000"></stop>
            <stop offset="100%" stop-color="#000000"></stop>
          </linearGradient>
        </defs>
        <g></g>
        <g>
          <path d="M59.2,32.9c-0.1,0-0.2,0-0.4,0c-1,0-1.8,0.8-1.8,1.8s0.8,1.8,1.8,1.8c1,0,1.8-0.8,1.8-1.8c0-0.1,0-0.3,0-0.4l2.2-2.2v-9.7   c0.5-0.3,0.8-0.9,0.8-1.5c0-1-0.8-1.8-1.8-1.8c-1,0-1.8,0.8-1.8,1.8c0,0.6,0.3,1.2,0.8,1.5v8.9L59.2,32.9z" stroke="none" fill="url('#linearGradientSk7cafcpx10')" style=""></path>
        </g>
      </svg>
    </g>
    <g transform="matrix(2.6189,0,0,2.6189,171.3357,135.1242)">
      <svg width="28.030739553520945" height="61" viewBox="54,39,28.030739553520945,61">
        <defs>
          <linearGradient x1="0" y1="0.5" x2="1" y2="0.5" id="linearGradientSk7cafcpx16">
            <stop offset="0%" stop-color="#000000"></stop>
            <stop offset="100%" stop-color="#000000"></stop>
          </linearGradient>
        </defs>
        <g></g>
        <g>
          <path d="M75.3,44c-1,0-1.8,0.8-1.8,1.8c0,0.1,0,0.3,0,0.4l-1,1h-4.1L59,56.5V94c0,0.6,0.4,1,1,1c0.6,0,1-0.4,1-1V57.4l8.2-8.2h4.1   l1.5-1.5c0.1,0,0.2,0,0.4,0c1,0,1.8-0.8,1.8-1.8C77.2,44.8,76.4,44,75.3,44z" stroke="none" fill="url('#linearGradientSk7cafcpx16')" style=""></path>
        </g>
      </svg>
    </g>
    <g transform="matrix(2.6189,0,0,2.6189,181.4301,163.528)">
      <svg width="18.10000000000001" height="50.4" viewBox="58.8,49.6,18.10000000000001,50.4">
        <defs>
          <linearGradient x1="0" y1="0.5" x2="1" y2="0.5" id="linearGradientSk7cafcpx1c">
            <stop offset="0%" stop-color="#000000"></stop>
            <stop offset="100%" stop-color="#000000"></stop>
          </linearGradient>
        </defs>
        <g></g>
        <g>
          <path d="M70.1,54.6c-0.6,0-1.2,0.3-1.5,0.8H66l-2.2,2.2V94c0,0.6,0.4,1,1,1c0.6,0,1-0.4,1-1V58.5l1.1-1.1h1.7   c0.3,0.5,0.9,0.8,1.5,0.8c1,0,1.8-0.8,1.8-1.8C71.9,55.5,71.1,54.6,70.1,54.6z" stroke="none" fill="url('#linearGradientSk7cafcpx1c')" style=""></path>
        </g>
      </svg>
    </g>
    <g transform="matrix(2.6189,0,0,2.6189,76.3846,93.264)">
      <svg width="44.900000000000006" height="25.799999999999997" viewBox="17.599999999999998,22.60000000000001,44.900000000000006,25.799999999999997">
        <defs>
          <linearGradient x1="0" y1="0.5" x2="1" y2="0.5" id="linearGradientSk7cafcpx1i">
            <stop offset="0%" stop-color="#000000"></stop>
            <stop offset="100%" stop-color="#000000"></stop>
          </linearGradient>
        </defs>
        <g></g>
        <g>
          <path d="M55.7,40.6c1,0,1.8-0.8,1.8-1.8c0-1-0.8-1.8-1.8-1.8c-1,0-1.8,0.8-1.8,1.8c0,0.2,0,0.4,0.1,0.6l-1.2,1.2l-8-8H29l-2.8-2.8   c0-0.1,0-0.2,0-0.4c0-1-0.8-1.8-1.8-1.8c-1,0-1.8,0.8-1.8,1.8s0.8,1.8,1.8,1.8c0.1,0,0.3,0,0.4,0l3.4,3.4H44l8.8,8.8l2.7-2.7   C55.6,40.5,55.7,40.6,55.7,40.6z" stroke="none" fill="url('#linearGradientSk7cafcpx1i')" style=""></path>
        </g>
      </svg>
    </g>
    <g transform="matrix(2.6189,0,0,2.6189,113.9546,58.1923)">
      <svg width="26.299999999999997" height="22.700000000000003" viewBox="32.7,8.999999999999996,26.299999999999997,22.700000000000003">
        <defs>
          <linearGradient x1="0" y1="0.5" x2="1" y2="0.5" id="linearGradientSk7cafcpx1o">
            <stop offset="0%" stop-color="#000000"></stop>
            <stop offset="100%" stop-color="#000000"></stop>
          </linearGradient>
        </defs>
        <g></g>
        <g>
          <path d="M39.6,17.6c0.6,0,1.2-0.3,1.5-0.8h1.6l7.7,7.7c0,0.1,0,0.2,0,0.4c0,1,0.8,1.8,1.8,1.8c1,0,1.8-0.8,1.8-1.8   c0-1-0.8-1.8-1.8-1.8c-0.1,0-0.3,0-0.4,0l-8.3-8.3h-2.5c-0.3-0.5-0.9-0.8-1.5-0.8c-1,0-1.8,0.8-1.8,1.8   C37.7,16.8,38.5,17.6,39.6,17.6z" stroke="none" fill="url('#linearGradientSk7cafcpx1o')" style=""></path>
        </g>
      </svg>
    </g>
    <g transform="matrix(2.6189,0,0,2.6189,83.6451,76.4301)">
      <svg width="27.3" height="18.7" viewBox="21.099999999999998,16.4,27.3,18.7">
        <defs>
          <linearGradient x1="0" y1="0.5" x2="1" y2="0.5" id="linearGradientSk7cafcpx1u">
            <stop offset="0%" stop-color="#000000"></stop>
            <stop offset="100%" stop-color="#000000"></stop>
          </linearGradient>
        </defs>
        <g></g>
        <g>
          <path d="M27.9,26.9c0.1,0,0.3,0,0.4,0l3.2,3.2h11.9l-6.5-6.5c0-0.1,0-0.2,0-0.4c0-1-0.8-1.8-1.8-1.8c-1,0-1.8,0.8-1.8,1.8   c0,1,0.8,1.8,1.8,1.8c0.1,0,0.3,0,0.4,0l3.1,3.1h-6.2l-2.7-2.7c0-0.1,0-0.2,0-0.4c0-1-0.8-1.8-1.8-1.8c-1,0-1.8,0.8-1.8,1.8   C26.1,26.1,26.9,26.9,27.9,26.9z" stroke="none" fill="url('#linearGradientSk7cafcpx1u')" style=""></path>
        </g>
      </svg>
    </g>
    <g transform="matrix(2.6189,0,0,2.6189,87.6224,57.4074)">
      <svg width="40.099999999999994" height="31.200000000000003" viewBox="22.600000000000005,8.899999999999993,40.099999999999994,31.200000000000003">
        <defs>
          <linearGradient x1="0" y1="0.5" x2="1" y2="0.5" id="linearGradientSk7cafcpx20">
            <stop offset="0%" stop-color="#000000"></stop>
            <stop offset="100%" stop-color="#000000"></stop>
          </linearGradient>
        </defs>
        <g></g>
        <g>
          <path d="M29.5,22.9c1,0,1.8-0.8,1.8-1.8c0-0.1,0-0.3,0-0.4l2.3-2.3h2.1l16.7,16.7l5.3-5.3v-12l-3.1-3.1h-2.4   c-0.3-0.5-0.9-0.8-1.5-0.8c-1,0-1.8,0.8-1.8,1.8c0,1,0.8,1.8,1.8,1.8c0.6,0,1.2-0.3,1.5-0.8h1.6l1.9,1.9V29l-3.3,3.3L36.5,16.4   h-3.8l-2.9,2.9c-0.1,0-0.2,0-0.4,0c-1,0-1.8,0.8-1.8,1.8C27.7,22.1,28.5,22.9,29.5,22.9z" stroke="none" fill="url('#linearGradientSk7cafcpx20')" style=""></path>
        </g>
      </svg>
    </g>
    <g transform="matrix(0.194,0,0,0.194,103.4578,263.4578)">
      <svg width="186.769" height="186.769" viewBox="-5.013000000000005,-5,186.769,186.769">
        <defs>
          <linearGradient x1="0" y1="0.5" x2="1" y2="0.5" id="linearGradientSk7cafcpx26">
            <stop offset="0%" stop-color="#000000"></stop>
            <stop offset="100%" stop-color="#000000"></stop>
          </linearGradient>
        </defs>
        <g>
          <rect x="-0.013" y="0" width="176.769" height="176.769" stroke="none" fill="url('#linearGradientSk7cafcpx26')" style=""></rect>
        </g>
      </svg>
    </g>
    <g transform="matrix(0.3387,0,0,0.3387,145.297,225.297)">
      <svg width="186.769" height="186.769" viewBox="-5.013000000000005,-5,186.769,186.769">
        <defs>
          <linearGradient x1="0" y1="0.5" x2="1" y2="0.5" id="linearGradientSk7cafcpx2c">
            <stop offset="0%" stop-color="#ffffff"></stop>
            <stop offset="100%" stop-color="#ffffff"></stop>
          </linearGradient>
        </defs>
        <g>
          <rect x="-0.013" y="0" width="176.769" height="176.769" stroke="none" fill="url('#linearGradientSk7cafcpx2c')" style=""></rect>
        </g>
      </svg>
    </g>
    <g transform="matrix(4.4748,0,0,4.4748,0.3827,0.4331)">
      <svg width="70.59700000000001" height="74.04699999999998" viewBox="14.702000000000002,0.992,70.59700000000001,74.04699999999998">
        <defs>
          <linearGradient x1="0" y1="0.5" x2="1" y2="0.5" id="linearGradientSk7cafcpx2i">
            <stop offset="0%" stop-color="#e848e8"></stop>
            <stop offset="100%" stop-color="#e848e8"></stop>
          </linearGradient>
        </defs>
        <g></g>
        <g>
          <path fill="url('#linearGradientSk7cafcpx2i')" stroke="#000000" stroke-miterlimit="10" d="M50,5.992c-16.707,0-30.298,13.591-30.298,30.296    c0,8.368,3.517,16.412,9.666,22.144l5.999,9.998c0.542,0.904,1.519,1.457,2.572,1.457h7.953c0.548,0.182,1.154,0.207,1.753,0.039    c0.035-0.01,0.065-0.028,0.1-0.039h4.511c0.035,0.011,0.064,0.029,0.1,0.039c0.271,0.076,0.544,0.113,0.812,0.113    c0.322,0,0.636-0.054,0.934-0.152h7.96c1.054,0,2.031-0.553,2.573-1.457l5.995-9.995c6.151-5.729,9.669-13.774,9.669-22.146    C80.298,19.583,66.707,5.992,50,5.992z M45.967,52.849h8.065l-3.098,11.037h-1.869L45.967,52.849z M66.269,54.292    c-0.22,0.198-0.409,0.428-0.562,0.683l-5.345,8.911h-3.197l3.713-13.226c0.254-0.904,0.07-1.875-0.498-2.623    c-0.567-0.749-1.452-1.188-2.391-1.188H42.009c-0.939,0-1.824,0.439-2.391,1.188c-0.567,0.748-0.751,1.719-0.498,2.623    l3.713,13.226h-3.197l-5.349-8.913c-0.152-0.253-0.341-0.483-0.56-0.682c-5.102-4.614-8.027-11.176-8.027-18.003    c0-13.397,10.9-24.296,24.298-24.296s24.298,10.899,24.298,24.296C74.298,43.119,71.372,49.681,66.269,54.292z" style=""></path>
        </g>
      </svg>
    </g>
  </g>
</svg>